<?xml version="1.0" standalone="no"?>
<!DOCTYPE svg PUBLIC "-//W3C//DTD SVG 20010904//EN"
 "http://www.w3.org/TR/2001/REC-SVG-20010904/DTD/svg10.dtd">
<svg version="1.0" xmlns="http://www.w3.org/2000/svg"
 width="183.000000pt" height="183.000000pt" viewBox="0 0 183.000000 183.000000"
 preserveAspectRatio="xMidYMid meet">
<metadata>
Created by potrace 1.14, written by Peter Selinger 2001-2017
</metadata>
<g transform="translate(0.000000,183.000000) scale(0.100000,-0.100000)"
fill="#000000" stroke="none">
<path d="M790 1530 c1 -14 7 -36 15 -50 22 -38 18 -41 -20 -19 -19 12 -35 16
-35 10 0 -5 6 -14 14 -18 7 -4 26 -28 41 -53 l28 -44 -26 17 c-15 9 -38 17
-53 17 l-27 0 33 -22 c32 -22 59 -61 30 -43 -18 11 -92 7 -104 -5 -7 -7 -6
-10 2 -11 33 -4 72 -19 72 -29 0 -5 -12 -10 -27 -12 l-28 -4 30 -13 c16 -7 38
-20 48 -29 17 -15 16 -17 -15 -34 -33 -19 -33 -19 -5 -15 26 4 58 -14 57 -31
-1 -21 -33 -44 -63 -46 -18 -2 -40 -6 -48 -11 -8 -4 -11 -5 -7 0 9 10 -24 75
-52 100 -16 15 -35 20 -70 19 -78 -3 -120 -32 -152 -106 -11 -26 -24 -48 -29
-48 -5 0 -9 -7 -9 -15 0 -9 -10 -15 -27 -16 -129 -5 -172 -8 -197 -13 -113
-21 -139 -17 -113 18 15 20 73 35 135 36 46 0 102 21 123 46 9 11 9 21 -1 44
-7 16 -16 30 -21 30 -12 0 -34 -42 -34 -65 0 -18 -9 -21 -90 -26 -101 -6 -151
-26 -161 -63 -12 -49 14 -77 81 -88 15 -2 20 -11 21 -33 1 -17 4 -42 7 -57 4
-20 -2 -38 -24 -68 -28 -38 -29 -44 -19 -76 7 -19 12 -66 11 -103 0 -48 4 -73
14 -81 25 -21 126 -23 236 -5 57 10 131 18 164 19 l60 1 3 -33 c2 -19 -1 -47
-7 -63 -12 -36 -1 -49 78 -88 100 -50 145 -62 272 -68 109 -6 211 15 310 61
77 37 101 60 90 89 -4 12 -9 41 -10 64 l-2 41 83 -4 c46 -2 112 -11 148 -18
65 -14 199 -15 233 -1 14 6 17 20 17 70 0 42 5 66 14 74 11 9 12 20 5 44 -13
44 -20 187 -9 187 5 0 16 7 24 16 19 19 22 124 4 142 -18 18 -28 15 -29 -10 0
-19 -3 -17 -15 11 -42 96 -114 148 -214 155 -36 2 -96 9 -135 15 -38 6 -97 10
-129 7 -74 -4 -106 -34 -106 -97 0 -39 0 -40 -22 -25 -28 20 -62 20 -81 1 -16
-16 -27 -10 -27 16 0 19 40 49 67 49 14 1 13 4 -7 15 -25 14 -25 14 -2 15 12
0 22 5 22 10 0 6 -11 10 -25 10 -32 0 -32 11 1 49 25 30 21 44 -4 19 -10 -10
-12 -8 -9 10 2 12 12 29 23 37 18 14 17 15 -11 9 -16 -3 -36 -7 -42 -10 -24
-7 -13 14 22 45 38 33 36 39 -5 16 -14 -8 -28 -14 -33 -15 -11 0 18 54 37 69
9 8 16 18 16 23 0 5 -17 -4 -37 -21 -20 -17 -38 -29 -40 -27 -2 2 4 24 12 50
24 70 14 88 -14 28 -14 -29 -30 -52 -37 -52 -7 0 -11 -8 -10 -17 5 -27 -15
-62 -30 -56 -9 3 -14 21 -14 49 0 24 -4 44 -8 44 -4 0 -13 14 -20 32 -15 40
-22 33 -24 -22 l-1 -43 -25 29 c-13 16 -32 43 -43 59 -19 30 -19 30 -19 5z
m430 -609 c0 -5 -7 -14 -15 -21 -36 -30 16 -35 61 -5 28 18 26 24 30 -100 3
-107 -8 -132 -64 -141 -20 -3 -41 -6 -46 -7 -9 -2 -11 46 -6 178 1 33 1 65 0
70 -6 23 1 35 20 35 11 0 20 -4 20 -9z m-549 -83 c0 -7 1 -55 2 -106 2 -73 -1
-91 -11 -87 -8 3 -20 5 -28 5 -8 0 -14 6 -14 14 0 8 -9 17 -19 21 -15 4 -20
17 -23 58 -2 29 -2 60 0 69 7 28 91 51 93 26z m893 -42 c16 -39 17 -53 8 -84
-20 -67 -33 -77 -83 -66 l-44 9 1 61 c1 80 32 136 72 131 20 -3 30 -14 46 -51z
m-1076 -33 c5 -21 13 -53 17 -70 6 -33 6 -33 -32 -34 -21 -1 -52 -3 -69 -5
-22 -3 -40 4 -67 27 -20 17 -37 34 -37 37 0 4 12 20 26 35 19 22 35 29 70 32
25 1 48 6 51 9 15 15 31 3 41 -31z m-268 -17 c-11 -22 -10 -28 19 -64 l31 -40
-30 -4 c-18 -3 -35 1 -41 9 -6 7 -17 13 -24 13 -8 0 -16 14 -20 31 -6 24 -2
34 18 53 45 42 69 42 47 2z m1470 -28 c0 -39 -13 -51 -24 -22 -8 21 -8 69 1
77 11 12 23 -16 23 -55z m-872 -254 c31 -26 59 -48 61 -50 4 -4 -37 2 -111 17
-32 7 -58 14 -58 16 0 3 11 14 25 25 14 11 23 24 20 29 -12 19 7 7 63 -37z
m282 31 c0 -8 9 -20 20 -27 11 -7 20 -15 20 -19 0 -6 -71 -24 -135 -35 l-40
-7 55 44 c30 24 57 47 58 51 6 14 22 8 22 -7z"/>
</g>
</svg>
